<svg version="1.1" xmlns="http://www.w3.org/2000/svg" xmlns:xlink="http://www.w3.org/1999/xlink" width="128px" height="128px" viewBox="0,0,256,256"><g fill="none" fill-rule="nonzero" stroke="none" stroke-width="1" stroke-linecap="butt" stroke-linejoin="miter" stroke-miterlimit="10" stroke-dasharray="" stroke-dashoffset="0" font-family="none" font-weight="none" font-size="none" text-anchor="none" style="mix-blend-mode: normal"><g transform="scale(8,8)"><path d="M19.4,6.07c1.03916,-1.67676 0.70076,-3.86074 -0.79711,-5.14439c-1.49787,-1.28365 -3.70791,-1.28365 -5.20578,0c-1.49787,1.28365 -1.83627,3.46764 -0.79711,5.14439c-1.62367,1.11666 -2.5955,2.95942 -2.6,4.93v1c0,0.55228 0.44772,1 1,1h10c0.55228,0 1,-0.44772 1,-1v-1c0.00773,-1.97361 -0.96693,-3.82172 -2.6,-4.93zM16,2c1.10457,0 2,0.89543 2,2c0,1.10457 -0.89543,2 -2,2c-1.10457,0 -2,-0.89543 -2,-2c0,-1.10457 0.89543,-2 2,-2zM12,11c0.00166,-1.46436 0.80336,-2.81077 2.09,-3.51c1.18152,0.67044 2.62848,0.67044 3.81,0c1.30331,0.68312 2.11427,2.03859 2.1,3.51z" fill="#807af9"></path><path d="M9.4,25.07c1.03916,-1.67676 0.70076,-3.86074 -0.79711,-5.14439c-1.49787,-1.28365 -3.70791,-1.28365 -5.20578,0c-1.49787,1.28365 -1.83627,3.46764 -0.79711,5.14439c-1.62367,1.11666 -2.5955,2.95942 -2.6,4.93v1c0,0.55228 0.44772,1 1,1h3c0.55228,0 1,-0.44772 1,-1c0,-0.55228 -0.44772,-1 -1,-1h-2c0.00166,-1.46436 0.80336,-2.81077 2.09,-3.51c1.18152,0.67044 2.62848,0.67044 3.81,0c1.30331,0.68312 2.11427,2.03859 2.1,3.51h-2c-0.55228,0 -1,0.44772 -1,1c0,0.55228 0.44772,1 1,1h3c0.55228,0 1,-0.44772 1,-1v-1c0.00773,-1.97361 -0.96693,-3.82172 -2.6,-4.93zM4,23c0,-1.10457 0.89543,-2 2,-2c1.10457,0 2,0.89543 2,2c0,1.10457 -0.89543,2 -2,2c-1.10457,0 -2,-0.89543 -2,-2z" fill="#807af9"></path><path d="M29.4,25.07c1.03916,-1.67676 0.70076,-3.86074 -0.79711,-5.14439c-1.49787,-1.28365 -3.70791,-1.28365 -5.20578,0c-1.49787,1.28365 -1.83627,3.46764 -0.79711,5.14439c-1.62367,1.11666 -2.5955,2.95942 -2.6,4.93v1c0,0.55228 0.44772,1 1,1h10c0.55228,0 1,-0.44772 1,-1v-1c0.00773,-1.97361 -0.96693,-3.82172 -2.6,-4.93zM26,21c1.10457,0 2,0.89543 2,2c0,1.10457 -0.89543,2 -2,2c-1.10457,0 -2,-0.89543 -2,-2c0,-1.10457 0.89543,-2 2,-2zM22,30c0.00166,-1.46436 0.80336,-2.81077 2.09,-3.51c1.18152,0.67044 2.62848,0.67044 3.81,0c1.30331,0.68312 2.11427,2.03859 2.1,3.51z" fill="#807af9"></path><path d="M19.71,22.29l-2.71,-2.7v-3.59c0,-0.55228 -0.44772,-1 -1,-1c-0.55228,0 -1,0.44772 -1,1v3.59l-2.71,2.7c-0.28846,0.28609 -0.37516,0.71827 -0.21937,1.09348c0.15579,0.37521 0.52311,0.61888 0.92937,0.61652c0.55,0 0.54,-0.13 3,-2.59c2.46,2.47 2.45,2.59 3,2.59c0.40627,0.00236 0.77358,-0.2413 0.92937,-0.61652c0.15579,-0.37521 0.06909,-0.80739 -0.21937,-1.09348z" fill="#ffffff"></path></g></g></svg>