<?xml version="1.0" encoding="UTF-8" standalone="no"?>
<!-- Created with Inkscape (http://www.inkscape.org/) -->

<svg
   version="1.1"
   id="svg4449"
   xml:space="preserve"
   width="682.66669"
   height="682.66669"
   viewBox="0 0 682.66669 682.66669"
   xmlns="http://www.w3.org/2000/svg"
   xmlns:svg="http://www.w3.org/2000/svg"><defs
     id="defs4453"><clipPath
       clipPathUnits="userSpaceOnUse"
       id="clipPath4463"><path
         d="M 0,512 H 512 V 0 H 0 Z"
         id="path4461" /></clipPath></defs><g
     id="g4455"
     transform="matrix(1.3333333,0,0,-1.3333333,0,682.66667)"><g
       id="g4457"><g
         id="g4459"
         clip-path="url(#clipPath4463)"><g
           id="g4465"
           transform="translate(398.4395,50.8599)"><path
             d="m 0,0 v -25.27 c 0,-9.96 -8.079,-18.04 -18.039,-18.04 H -324.42 c -9.97,0 -18.05,8.08 -18.05,18.04 v 358.76 c 0,9.97 8.08,18.04 18.05,18.04 h 29.391 z"
             style="fill:#ffde8f;fill-opacity:1;fill-rule:nonzero;stroke:none"
             id="path4467" /></g><g
           id="g4469"
           transform="translate(398.4395,50.8599)"><path
             d="m 0,0 v -25.27 c 0,-9.96 -8.079,-18.04 -18.039,-18.04 h -34 c 9.96,0 18.039,8.08 18.039,18.04 V 0 l -261.029,351.53 z"
             style="fill:#ffb651;fill-opacity:1;fill-rule:nonzero;stroke:none"
             id="path4471" /></g><g
           id="g4473"
           transform="translate(456.0303,432.3501)"><path
             d="m 0,0 v -363.49 c 0,-9.97 -8.08,-18.04 -18.04,-18.04 h -316.391 c -9.96,0 -18.039,8.07 -18.039,18.04 v 417.6 c 0,9.96 8.079,18.04 18.039,18.04 H -72.16 Z"
             style="fill:#fff2d9;fill-opacity:1;fill-rule:nonzero;stroke:none"
             id="path4475" /></g><g
           id="g4477"
           transform="translate(456.0303,432.3501)"><path
             d="m 0,0 v -363.49 c 0,-9.97 -8.08,-18.04 -18.04,-18.04 h -30 c 9.96,0 18.04,8.07 18.04,18.04 V 0 l -72.16,72.15 h 30 z"
             style="fill:#ffde8f;fill-opacity:1;fill-rule:nonzero;stroke:none"
             id="path4479" /></g><g
           id="g4481"
           transform="translate(456.0303,432.3501)"><path
             d="M 0,0 V -0.5 H -72.16 V 72.15 Z"
             style="fill:#ffde8f;fill-opacity:1;fill-rule:nonzero;stroke:none"
             id="path4483" /></g><g
           id="g4485"
           transform="translate(456.0303,432.3501)"><path
             d="M 0,0 V -0.5 H -30 V 0 l -42.16,42.15 v 30 z"
             style="fill:#ffb651;fill-opacity:1;fill-rule:nonzero;stroke:none"
             id="path4487" /></g><path
           d="m 149.053,424.345 h 176.652 v 29.527 H 149.053 Z"
           style="fill:#7cc0d2;fill-opacity:1;fill-rule:nonzero;stroke:none"
           id="path4489" /><g
           id="g4491"
           transform="translate(175.1562,504.5029)"><path
             d="m 0,0 h -53.554 c -9.965,0 -18.042,-8.078 -18.042,-18.043 v -417.599 c 0,-9.965 8.077,-18.043 18.042,-18.043 h 39.135"
             style="fill:none;stroke:#000000;stroke-width:15;stroke-linecap:round;stroke-linejoin:round;stroke-miterlimit:10;stroke-dasharray:none;stroke-opacity:1"
             id="path4493" /></g><g
           id="g4495"
           transform="translate(456.0293,375.9932)"><path
             d="M 0,0 V 56.355 L -72.154,128.51 H -246.538"
             style="fill:none;stroke:#000000;stroke-width:15;stroke-linecap:round;stroke-linejoin:round;stroke-miterlimit:10;stroke-dasharray:none;stroke-opacity:1"
             id="path4497" /></g><g
           id="g4499"
           transform="translate(195.4658,50.8179)"><path
             d="m 0,0 h 242.521 c 9.964,0 18.042,8.078 18.042,18.043 v 272.558"
             style="fill:none;stroke:#000000;stroke-width:15;stroke-linecap:round;stroke-linejoin:round;stroke-miterlimit:10;stroke-dasharray:none;stroke-opacity:1"
             id="path4501" /></g><g
           id="g4503"
           transform="translate(55.9727,325.2002)"><path
             d="m 0,0 v -299.654 c 0,-9.965 8.078,-18.043 18.043,-18.043 h 306.384 c 9.965,0 18.043,8.078 18.043,18.043 v 25.272"
             style="fill:none;stroke:#000000;stroke-width:15;stroke-linecap:round;stroke-linejoin:round;stroke-miterlimit:10;stroke-dasharray:none;stroke-opacity:1"
             id="path4505" /></g><g
           id="g4507"
           transform="translate(103.4092,402.3481)"><path
             d="m 0,0 h -29.394 c -9.964,0 -18.043,-8.078 -18.043,-18.043 v -24.498"
             style="fill:none;stroke:#000000;stroke-width:15;stroke-linecap:round;stroke-linejoin:round;stroke-miterlimit:10;stroke-dasharray:none;stroke-opacity:1"
             id="path4509" /></g><g
           id="g4511"
           transform="translate(383.875,504.5029)"><path
             d="M 0,0 V -72.155 H 72.154"
             style="fill:none;stroke:#000000;stroke-width:15;stroke-linecap:butt;stroke-linejoin:round;stroke-miterlimit:10;stroke-dasharray:none;stroke-opacity:1"
             id="path4513" /></g><g
           id="g4515"
           transform="translate(149.0527,375.9932)"><path
             d="M 0,0 H 261.484"
             style="fill:none;stroke:#000000;stroke-width:15;stroke-linecap:round;stroke-linejoin:round;stroke-miterlimit:10;stroke-dasharray:none;stroke-opacity:1"
             id="path4517" /></g><g
           id="g4519"
           transform="translate(149.0527,341.1895)"><path
             d="M 0,0 H 233.305"
             style="fill:none;stroke:#000000;stroke-width:15;stroke-linecap:round;stroke-linejoin:round;stroke-miterlimit:10;stroke-dasharray:none;stroke-opacity:1"
             id="path4521" /></g><g
           id="g4523"
           transform="translate(149.0527,306.1699)"><path
             d="M 0,0 H 261.484"
             style="fill:none;stroke:#000000;stroke-width:15;stroke-linecap:round;stroke-linejoin:round;stroke-miterlimit:10;stroke-dasharray:none;stroke-opacity:1"
             id="path4525" /></g><g
           id="g4527"
           transform="translate(149.0527,271.3662)"><path
             d="M 0,0 H 157.221"
             style="fill:none;stroke:#000000;stroke-width:15;stroke-linecap:round;stroke-linejoin:round;stroke-miterlimit:10;stroke-dasharray:none;stroke-opacity:1"
             id="path4529" /></g><g
           id="g4531"
           transform="translate(410.5371,271.3662)"><path
             d="M 0,0 H -55.395"
             style="fill:none;stroke:#000000;stroke-width:15;stroke-linecap:round;stroke-linejoin:round;stroke-miterlimit:10;stroke-dasharray:none;stroke-opacity:1"
             id="path4533" /></g><g
           id="g4535"
           transform="translate(149.0527,236.3467)"><path
             d="M 0,0 H 233.305"
             style="fill:none;stroke:#000000;stroke-width:15;stroke-linecap:round;stroke-linejoin:round;stroke-miterlimit:10;stroke-dasharray:none;stroke-opacity:1"
             id="path4537" /></g><g
           id="g4539"
           transform="translate(149.0527,201.3276)"><path
             d="M 0,0 H 261.484"
             style="fill:none;stroke:#000000;stroke-width:15;stroke-linecap:round;stroke-linejoin:round;stroke-miterlimit:10;stroke-dasharray:none;stroke-opacity:1"
             id="path4541" /></g><g
           id="g4543"
           transform="translate(149.0527,166.1094)"><path
             d="M 0,0 H 157.221"
             style="fill:none;stroke:#000000;stroke-width:15;stroke-linecap:round;stroke-linejoin:round;stroke-miterlimit:10;stroke-dasharray:none;stroke-opacity:1"
             id="path4545" /></g><g
           id="g4547"
           transform="translate(410.5371,166.1094)"><path
             d="M 0,0 H -55.395"
             style="fill:none;stroke:#000000;stroke-width:15;stroke-linecap:round;stroke-linejoin:round;stroke-miterlimit:10;stroke-dasharray:none;stroke-opacity:1"
             id="path4549" /></g><path
           d="M 325.705,424.348 H 149.053 v 29.527 h 176.652 z"
           style="fill:none;stroke:#000000;stroke-width:15;stroke-linecap:round;stroke-linejoin:round;stroke-miterlimit:10;stroke-dasharray:none;stroke-opacity:1"
           id="path4551" /><g
           id="g4553"
           transform="translate(331.8721,99.1094)"><path
             d="M 0,0 H -19.315"
             style="fill:none;stroke:#000000;stroke-width:15;stroke-linecap:round;stroke-linejoin:round;stroke-miterlimit:10;stroke-dasharray:none;stroke-opacity:1"
             id="path4555" /></g><g
           id="g4557"
           transform="translate(410.5371,99.1094)"><path
             d="M 0,0 H -44"
             style="fill:none;stroke:#000000;stroke-width:15;stroke-linecap:round;stroke-linejoin:round;stroke-miterlimit:10;stroke-dasharray:none;stroke-opacity:1"
             id="path4559" /></g></g></g></g></svg>
