<?xml version="1.0" encoding="utf-8"?>
<!-- Generator: Adobe Illustrator 27.5.0, SVG Export Plug-In . SVG Version: 6.00 Build 0)  -->
<svg version="1.1" xmlns="http://www.w3.org/2000/svg" xmlns:xlink="http://www.w3.org/1999/xlink" x="0px" y="0px"
	 viewBox="0 0 5000 4000" style="enable-background:new 0 0 5000 4000;" xml:space="preserve">
<g id="Background">
	<g>
		<g>
			<rect style="fill:#FFFFFF;" width="5000" height="4000"/>
		</g>
	</g>
	<g style="opacity:0.2;">
		<g>
			
				<path style="fill:none;stroke:#0F31AC;stroke-width:20;stroke-linecap:round;stroke-miterlimit:10;stroke-dasharray:50,50,50,50,50,50;" d="
				M1284.181,1141.937c-55.304-26.007-146.764,16.278-175.926,78.156c-55.668,118.122,124.378,289.192,189.854,270.831
				C1371.276,1470.406,1385.72,1189.685,1284.181,1141.937z"/>
			
				<path style="fill:none;stroke:#0F31AC;stroke-width:20;stroke-linecap:round;stroke-miterlimit:10;stroke-dasharray:50,50,50,50,50,50;" d="
				M1007.565,1409.484c-19.737-11.417-228.805-132.355-347.122-36.642c-83.076,67.205-83.871,210.855-21.441,291.591
				c123.648,159.904,507.069,88.214,546.852-26.205C1212.644,1561.176,1086.865,1455.356,1007.565,1409.484z"/>
			
				<path style="fill:none;stroke:#0F31AC;stroke-width:20;stroke-linecap:round;stroke-miterlimit:10;stroke-dasharray:50,50,50,50,50,50;" d="
				M1276.577,3384c508.89-126.31,1087.12-254.9,1985-233c502.15,12.25,615.94-143.58,996.51-337.33
				c339.21-172.68,505.81-516.06,403.49-710.67c-103.3-196.47-417.94-118.25-675.62-410.71c-117.35-133.2-96.7-226.56-164.45-374.27
				c-214.55-467.71-1018.68-833.28-1415.21-639.81c-523.87,255.59-76.01,1359.96-661.6,1661.64
				c-370.41,190.84-650.38-175.51-1016.12,104.15c-181.22,138.57-402.859,332.948-420,544C308.577,2988,284.577,3504,1276.577,3384z
				"/>
		</g>
		<path style="fill:#ACBCF8;" d="M4088.14,2809.3c0,0-92.18,122.22-184.38,289.91c-83.12,151.22-146.33,354.98-160.29,525.1
			c-39.15-1.85-82.15-3.59-128.64-5.24c-275.34-9.77-672.84-15.89-1114.83-15.89c-502.48,0-947.45,7.92-1220.8,20.1
			c-9.41,0.42-18.62,0.84-27.62,1.27C910.31,3201.56,223.1,2464.63,855.52,2161.47c0,0,46.33-14.11,115.79-44.42
			c219.84-95.95,671.6-354.14,621.35-840.95c0,0-17.12-90.84-17.12-217.24c0-295.56,93.57-785.48,718.25-763.12
			c378.29,13.56,726.68,206.06,937.31,514.18c206.6,302.21,536.94,674.04,805.96,461.76c62.1-49.02,144.21-67.18,220.87-45.63
			C4451.57,1280.44,4671.55,1562.01,4088.14,2809.3z"/>
	</g>
	<path style="opacity:0.15;fill:#040C2B;" d="M4590.475,3640.772c0,20.002-935.938,36.219-2090.475,36.219
		c-651.433,0-1233.267-5.161-1616.659-13.256c-88.307-1.865-166.074-3.885-231.739-6.031c-43.253-1.412-81.255-2.888-113.561-4.409
		c-83.119-3.894-128.516-8.113-128.516-12.523c0-5.614,73.682-10.929,205.191-15.665c53.857-1.947,117.405-3.794,189.565-5.514
		c379.688-9.109,997.761-15.04,1695.719-15.04c613.938,0,1166.067,4.582,1548.519,11.889
		C4385.271,3622.871,4590.475,3631.409,4590.475,3640.772z"/>
</g>
<g id="Design">
	<g>
		<g>
			<g>
				<g>
					<path style="fill:#E3E9F7;" d="M3172.425,981.063l-136.945,256.626c-5.188,9.721-17.274,13.396-26.995,8.209l-226.926-121.096
						c-9.721-5.188-13.396-17.274-8.209-26.995L2935.5,793.949c5.188-9.721,17.274-13.397,26.995-8.209l178.514,95.262l0.562,1.786
						L3172.425,981.063z"/>
					<path style="opacity:0.1;" d="M3172.425,981.063l-50.506-26.952c-7.914-4.223-10.905-14.061-6.682-21.975l26.334-49.349
						L3172.425,981.063z"/>
				</g>
			</g>
			<g>
				<path style="fill:#CDD7FB;" d="M2950.568,1031.182l4.3-8.059c3.719-6.97,8.44-12.237,14.17-15.804
					c5.727-3.566,14.097-6.141,25.11-7.727c10.529-1.377,17.918-3.122,22.173-5.237c4.252-2.114,7.503-5.277,9.75-9.488
					c2.518-4.719,2.693-9.242,0.526-13.571c-2.168-4.327-6.374-8.159-12.617-11.49c-10.891-5.812-25.204-8.878-42.94-9.203
					l0.857-30.184c21.031-0.436,40.624,4.189,58.775,13.875c14.956,7.981,24.927,17.919,29.912,29.814
					c4.986,11.895,4.282,23.832-2.11,35.811c-4.262,7.987-9.758,13.915-16.487,17.786c-6.731,3.872-17.115,6.726-31.152,8.561
					c-9.721,1.436-16.224,3.003-19.508,4.7c-3.285,1.699-6.089,4.726-8.414,9.082l-3.487,6.534L2950.568,1031.182z
					 M2927.207,1066.568c3.254-6.099,7.348-9.836,12.281-11.216c4.932-1.377,10.521-0.402,16.765,2.93
					c6.026,3.216,9.837,7.302,11.438,12.26c1.597,4.958,0.809,10.414-2.368,16.366c-3.061,5.736-7.144,9.364-12.244,10.885
					c-5.103,1.521-10.632,0.693-16.584-2.484c-6.098-3.254-9.956-7.39-11.571-12.401
					C2923.307,1077.896,2924.069,1072.448,2927.207,1066.568z"/>
			</g>
		</g>
		<g>
			<g>
				<path style="fill:#E3E9F7;" d="M1307.028,2343.975l-161.884,248.397c-6.132,9.41-18.731,12.066-28.141,5.934l-219.649-143.148
					c-9.409-6.132-12.066-18.731-5.934-28.141l191.679-294.115c6.132-9.409,18.731-12.066,28.141-5.934l172.79,112.61l0.411,1.864
					L1307.028,2343.975z"/>
				<path style="opacity:0.1;" d="M1307.028,2343.975l-48.886-31.86c-7.66-4.992-9.822-15.248-4.83-22.908l31.13-47.766
					L1307.028,2343.975z"/>
			</g>
			<g>
				<path style="fill:#CDD7FB;" d="M1131.214,2459.94l-29.287-19.087l1.688-64.083l-57.946,27.419l-27.467-17.901l80.779-36.23
					l0.613-83.053l28.295,18.44l-2.3,60.501l53.925-26.856l27.633,18.009l-77.065,35.232L1131.214,2459.94z"/>
			</g>
		</g>
		<g>
			<g>
				<path style="fill:#E3E9F7;" d="M4120.948,1557.341l106.195,276.821c4.022,10.486-1.217,22.248-11.703,26.271l-244.784,93.905
					c-10.486,4.023-22.248-1.217-26.271-11.703l-125.741-327.771c-4.023-10.486,1.217-22.248,11.703-26.271l192.563-73.872
					l1.75,0.76L4120.948,1557.341z"/>
				<path style="opacity:0.1;" d="M4120.948,1557.341l-54.48,20.9c-8.536,3.275-18.111-0.991-21.385-9.527l-20.421-53.232
					L4120.948,1557.341z"/>
			</g>
			<g>
				<g>
					<path style="fill:#CDD7FB;" d="M4096.124,1795.831l-20.725,7.951l-28.972-15.997l-10.839,31.27l-19.437,7.456l16.032-43.116
						l-38.187-20.061l20.022-7.681l27.066,15.405l9.467-29.419l19.554-7.501l-14.986,41.293L4096.124,1795.831z"/>
				</g>
				<g>
					<path style="fill:#CDD7FB;" d="M4087.197,1609.829l-189.211,72.586c-2.262,0.868-4.798-0.262-5.666-2.524l0,0
						c-0.868-2.262,0.262-4.798,2.524-5.666l189.211-72.586c2.262-0.868,4.798,0.262,5.666,2.524l0,0
						C4090.589,1606.425,4089.459,1608.962,4087.197,1609.829z"/>
					<path style="fill:#CDD7FB;" d="M4095.367,1630.284l-189.211,72.586c-2.261,0.868-4.798-0.262-5.666-2.524l0,0
						c-0.867-2.262,0.263-4.798,2.524-5.666l189.211-72.586c2.262-0.868,4.799,0.262,5.666,2.524l0,0
						C4098.759,1626.879,4097.629,1629.416,4095.367,1630.284z"/>
					<path style="fill:#CDD7FB;" d="M4103.538,1650.738l-189.211,72.586c-2.262,0.868-4.798-0.262-5.666-2.524l0,0
						c-0.868-2.262,0.262-4.798,2.524-5.666l189.211-72.586c2.262-0.868,4.799,0.262,5.666,2.524h0
						C4106.929,1647.333,4105.799,1649.87,4103.538,1650.738z"/>
					<path style="fill:#CDD7FB;" d="M4111.708,1671.192l-189.211,72.586c-2.261,0.868-4.798-0.262-5.666-2.524l0,0
						c-0.868-2.262,0.262-4.798,2.524-5.666l189.211-72.586c2.262-0.868,4.798,0.262,5.666,2.524l0,0
						C4115.1,1667.788,4113.97,1670.325,4111.708,1671.192z"/>
					<path style="fill:#CDD7FB;" d="M4118.333,1692.323l-189.211,72.586c-2.261,0.868-4.798-0.262-5.666-2.524l0,0
						c-0.867-2.262,0.263-4.798,2.524-5.666l189.211-72.586c2.262-0.868,4.798,0.262,5.666,2.524l0,0
						C4121.724,1688.919,4120.594,1691.455,4118.333,1692.323z"/>
				</g>
			</g>
		</g>
		<g>
			<g>
				<path style="fill:#E3E9F7;" d="M1350.707,3070.484l119.433,271.373c4.524,10.28-0.142,22.281-10.422,26.805l-239.966,105.611
					c-10.28,4.524-22.281-0.142-26.805-10.421l-141.415-321.319c-4.524-10.28,0.142-22.281,10.422-26.805l188.772-83.08l1.785,0.675
					L1350.707,3070.484z"/>
				<path style="opacity:0.1;" d="M1350.707,3070.484l-53.408,23.505c-8.368,3.683-18.138-0.115-21.82-8.484l-22.967-52.185
					L1350.707,3070.484z"/>
			</g>
			<g>
				<g>
					<path style="fill:#CDD7FB;" d="M1337.423,3309.894l-20.317,8.942l-29.71-14.58l-9.317,31.756l-19.054,8.386l13.933-43.84
						l-39.111-18.194l19.628-8.639l27.778,14.08l8.036-29.842l19.169-8.437l-12.976,41.968L1337.423,3309.894z"/>
				</g>
				<g>
					<path style="fill:#CDD7FB;" d="M1319.529,3124.54l-185.487,81.634c-2.217,0.976-4.806-0.031-5.781-2.248l0,0
						c-0.976-2.217,0.031-4.805,2.248-5.781l185.487-81.634c2.217-0.976,4.805,0.031,5.781,2.248l0,0
						C1322.752,3120.976,1321.746,3123.564,1319.529,3124.54z"/>
					<path style="fill:#CDD7FB;" d="M1328.677,3144.576l-185.487,81.634c-2.217,0.976-4.806-0.031-5.781-2.248l0,0
						c-0.976-2.217,0.031-4.805,2.248-5.781l185.487-81.634c2.217-0.976,4.806,0.031,5.781,2.248l0,0
						C1331.9,3141.012,1330.894,3143.6,1328.677,3144.576z"/>
					<path style="fill:#CDD7FB;" d="M1337.825,3164.612l-185.487,81.634c-2.217,0.976-4.805-0.031-5.781-2.248l0,0
						c-0.976-2.217,0.031-4.805,2.248-5.781l185.487-81.634c2.217-0.976,4.805,0.031,5.781,2.248l0,0
						C1341.048,3161.048,1340.042,3163.636,1337.825,3164.612z"/>
					<path style="fill:#CDD7FB;" d="M1346.973,3184.648l-185.487,81.634c-2.217,0.976-4.806-0.031-5.781-2.248l0,0
						c-0.976-2.217,0.031-4.805,2.248-5.781l185.487-81.635c2.217-0.976,4.805,0.031,5.781,2.248l0,0
						C1350.196,3181.084,1349.19,3183.672,1346.973,3184.648z"/>
					<path style="fill:#CDD7FB;" d="M1354.61,3205.435l-185.487,81.634c-2.217,0.976-4.806-0.031-5.781-2.248l0,0
						c-0.976-2.217,0.031-4.806,2.248-5.781l185.487-81.634c2.217-0.976,4.805,0.031,5.781,2.248l0,0
						C1357.833,3201.87,1356.827,3204.459,1354.61,3205.435z"/>
				</g>
			</g>
		</g>
		<g>
			<g>
				<path style="fill:#E3E9F7;" d="M2179.707,1111.484l119.433,271.373c4.524,10.28-0.142,22.281-10.422,26.805l-239.966,105.611
					c-10.28,4.524-22.281-0.142-26.805-10.422l-141.415-321.319c-4.524-10.28,0.142-22.281,10.422-26.805l188.772-83.08l1.785,0.675
					L2179.707,1111.484z"/>
				<path style="opacity:0.1;" d="M2179.707,1111.484l-53.408,23.505c-8.368,3.683-18.138-0.115-21.821-8.484l-22.967-52.184
					L2179.707,1111.484z"/>
			</g>
			<g>
				<g>
					<path style="fill:#CDD7FB;" d="M2166.423,1350.894l-20.317,8.942l-29.71-14.58l-9.317,31.756l-19.054,8.386l13.933-43.84
						l-39.111-18.194l19.628-8.639l27.778,14.08l8.036-29.842l19.169-8.437l-12.976,41.968L2166.423,1350.894z"/>
				</g>
				<g>
					<path style="fill:#CDD7FB;" d="M2148.529,1165.54l-185.487,81.634c-2.217,0.976-4.805-0.031-5.781-2.248v0
						c-0.976-2.217,0.031-4.805,2.248-5.781l185.487-81.634c2.217-0.976,4.806,0.03,5.781,2.248l0,0
						C2151.752,1161.976,2150.746,1164.564,2148.529,1165.54z"/>
					<path style="fill:#CDD7FB;" d="M2157.677,1185.576l-185.487,81.634c-2.217,0.976-4.806-0.03-5.781-2.248l0,0
						c-0.976-2.217,0.031-4.805,2.248-5.781l185.487-81.634c2.217-0.976,4.805,0.031,5.781,2.248l0,0
						C2160.9,1182.012,2159.894,1184.6,2157.677,1185.576z"/>
					<path style="fill:#CDD7FB;" d="M2166.825,1205.612l-185.487,81.634c-2.217,0.976-4.805-0.031-5.781-2.248l0,0
						c-0.976-2.217,0.031-4.805,2.248-5.781l185.487-81.634c2.217-0.976,4.805,0.031,5.781,2.248l0,0
						C2170.048,1202.048,2169.042,1204.636,2166.825,1205.612z"/>
					<path style="fill:#CDD7FB;" d="M2175.973,1225.648l-185.487,81.634c-2.217,0.976-4.806-0.031-5.781-2.248l0,0
						c-0.976-2.217,0.031-4.806,2.248-5.781l185.487-81.634c2.217-0.976,4.806,0.031,5.781,2.248l0,0
						C2179.196,1222.084,2178.19,1224.672,2175.973,1225.648z"/>
					<path style="fill:#CDD7FB;" d="M2183.61,1246.434l-185.487,81.634c-2.217,0.976-4.806-0.031-5.781-2.248l0,0
						c-0.976-2.217,0.031-4.806,2.248-5.781l185.487-81.634c2.217-0.976,4.805,0.031,5.781,2.248l0,0
						C2186.833,1242.87,2185.827,1245.459,2183.61,1246.434z"/>
				</g>
			</g>
		</g>
	</g>
	<g>
		<rect x="1572.444" y="1868.865" style="fill:#E3E9F7;" width="1855.112" height="1346.135"/>
		<rect x="1573.132" y="1699.876" style="fill:#ACBCF8;" width="1854.396" height="169.36"/>
		<g>
			<g>
				<g>
					<ellipse style="fill:#E3E9F7;" cx="1658.901" cy="1776.653" rx="28.498" ry="27.098"/>
				</g>
			</g>
			<g>
				<g>
					<ellipse style="fill:#E3E9F7;" cx="1742.021" cy="1776.653" rx="28.498" ry="27.098"/>
				</g>
			</g>
			<g>
				<g>
					<ellipse style="fill:#E3E9F7;" cx="1825.141" cy="1776.653" rx="28.498" ry="27.098"/>
				</g>
			</g>
		</g>
		<g>
			<g>
				<rect x="1628.263" y="1939.729" style="fill:#F4F6FC;" width="1743.474" height="1204.407"/>
			</g>
		</g>
		<g>
			<g>
				<path style="fill:#ACBCF8;" d="M2770.452,2235.868l0,529.548c0,20.06-16.262,36.322-36.322,36.322h-468.261
					c-20.06,0-36.322-16.262-36.322-36.322l0-627.012c0-20.06,16.262-36.322,36.322-36.322h368.365l2.433,2.388L2770.452,2235.868z"
					/>
				<path style="opacity:0.15;" d="M2770.452,2235.868h-104.219c-16.329,0-29.567-13.238-29.567-29.567v-101.831L2770.452,2235.868z
					"/>
			</g>
			<g>
				<g>
					<path style="fill:#FFFFFF;" d="M2629.89,2541.378L2629.89,2541.378c-4.106,0-7.707-2.648-9.024-6.537
						c-3.428-10.123-14.638-20.109-31.907-28.152c-23.604-10.993-55.197-17.046-88.959-17.046s-65.355,6.053-88.959,17.046
						c-17.27,8.043-28.479,18.029-31.907,28.152c-1.317,3.889-4.917,6.537-9.024,6.537h0c-6.477,0-11.082-6.342-9.037-12.488
						c5.083-15.279,19.541-28.975,41.953-39.413c26.061-12.136,60.5-18.82,96.974-18.82s70.913,6.684,96.974,18.82
						c22.413,10.438,36.87,24.133,41.953,39.413C2640.972,2535.037,2636.367,2541.378,2629.89,2541.378z"/>
				</g>
				<g>
					<circle style="fill:#FFFFFF;" cx="2430.229" cy="2401.835" r="39.395"/>
					<circle style="fill:#FFFFFF;" cx="2569.771" cy="2401.835" r="39.395"/>
				</g>
			</g>
			<g>
				<path d="M2348.392,2980.861h-18.164l-29.321-50.989h-0.415c0.583,9.006,0.876,15.429,0.876,19.271v31.718h-12.771v-67.402
					h18.026l29.275,50.482h0.323c-0.461-8.76-0.691-14.953-0.691-18.579v-31.903h12.863V2980.861z"/>
				<path d="M2426.536,2947.068c0,11.157-2.766,19.732-8.299,25.725c-5.532,5.993-13.462,8.99-23.789,8.99
					s-18.257-2.997-23.789-8.99c-5.532-5.993-8.298-14.598-8.298-25.817c0-11.218,2.773-19.785,8.322-25.702
					c5.548-5.917,13.5-8.875,23.858-8.875c10.357,0,18.28,2.981,23.766,8.944
					C2423.793,2927.306,2426.536,2935.881,2426.536,2947.068z M2377.344,2947.068c0,7.531,1.429,13.201,4.288,17.012
					c2.858,3.811,7.13,5.717,12.816,5.717c11.403,0,17.104-7.576,17.104-22.729c0-15.183-5.67-22.775-17.012-22.775
					c-5.687,0-9.974,1.913-12.863,5.74C2378.789,2933.86,2377.344,2939.538,2377.344,2947.068z"/>
				<path d="M2520.953,2946.515c0,11.095-3.158,19.594-9.474,25.495s-15.438,8.852-27.362,8.852h-19.086v-67.402h21.161
					c11.002,0,19.547,2.905,25.633,8.713C2517.911,2927.981,2520.953,2936.095,2520.953,2946.515z M2506.109,2946.884
					c0-14.476-6.393-21.714-19.179-21.714h-7.607v43.889h6.132C2499.223,2969.059,2506.109,2961.667,2506.109,2946.884z"/>
				<path d="M2576.184,2980.861l-4.887-16.043h-24.573l-4.887,16.043h-15.398l23.789-67.678h17.473l23.881,67.678H2576.184z
					 M2567.886,2952.831c-4.518-14.538-7.061-22.759-7.63-24.665c-0.569-1.906-0.976-3.412-1.222-4.518
					c-1.014,3.935-3.919,13.662-8.713,29.183H2567.886z"/>
				<path d="M2626.067,2980.861h-14.292v-55.507h-18.302v-11.895h50.897v11.895h-18.303V2980.861z"/>
				<path d="M2696.004,2980.861l-4.887-16.043h-24.573l-4.887,16.043h-15.398l23.789-67.678h17.473l23.881,67.678H2696.004z
					 M2687.706,2952.831c-4.518-14.538-7.061-22.759-7.63-24.665c-0.569-1.906-0.976-3.412-1.222-4.518
					c-1.014,3.935-3.919,13.662-8.713,29.183H2687.706z"/>
			</g>
		</g>
	</g>
	<g>
		<g>
			<g>
				<g>
					<path style="fill:#FFFFFF;" d="M3681.855,2619.768h56.338c42.419,0,76.807-34.387,76.807-76.807v0
						c0-42.419-34.388-76.807-76.807-76.807h-56.338c-42.419,0-76.807,34.388-76.807,76.807v0
						C3605.049,2585.38,3639.436,2619.768,3681.855,2619.768z"/>
				</g>
			</g>
			<g>
				<path style="fill:#FFFFFF;" d="M3685.666,2607.379h48.717c0,0-4.359,39.23-48.717,58.717
					C3685.666,2666.096,3708.999,2631.737,3685.666,2607.379z"/>
			</g>
			<g>
				<path style="fill:#ACBCF8;" d="M3698.019,2558.235v-4.651c0-4.023,0.858-7.521,2.577-10.497c1.718-2.975,4.86-6.138,9.428-9.491
					c4.4-3.143,7.301-5.698,8.705-7.668c1.404-1.969,2.106-4.169,2.106-6.6c0-2.723-1.006-4.798-3.017-6.223
					c-2.011-1.424-4.819-2.137-8.423-2.137c-6.285,0-13.451,2.053-21.496,6.16l-6.851-13.765c9.344-5.238,19.254-7.857,29.73-7.857
					c8.632,0,15.494,2.074,20.585,6.223s7.637,9.68,7.637,16.594c0,4.61-1.048,8.59-3.143,11.942
					c-2.096,3.353-6.076,7.124-11.942,11.314c-4.023,2.976-6.568,5.239-7.637,6.788c-1.068,1.551-1.603,3.583-1.603,6.097v3.771
					H3698.019z M3696.008,2579.731c0-3.52,0.943-6.18,2.828-7.982c1.886-1.801,4.63-2.703,8.234-2.703
					c3.478,0,6.169,0.922,8.077,2.766c1.906,1.844,2.86,4.484,2.86,7.92c0,3.311-0.964,5.919-2.891,7.825
					c-1.928,1.906-4.61,2.86-8.045,2.86c-3.52,0-6.244-0.933-8.171-2.797C3696.971,2585.755,3696.008,2583.125,3696.008,2579.731z"
					/>
			</g>
		</g>
		<g>
			<polygon style="opacity:0.67;fill:#050505;" points="3529.403,3583.468 3555.75,3593.72 3548.065,3630.886 3503.056,3616.789 			
				"/>
			<path style="fill:#040C2B;" d="M3162.198,3501.125c0,0-70.257-8.33-85.626,29.477c0,0-1.098,94.197,42.813,100.605
				c0,0,37.324,3.845,61.475-12.816l140.515-16.02l95.506-6.408L3162.198,3501.125z"/>
			<path style="fill:#040C2B;" d="M3584.292,3546.301c0,0,36.872,59.309,15.05,82.885c-3.379,3.65,1.333,8.078,8.441,8.065
				l148.31-0.277c0,0,84.528,15.379,100.995-49.341c0,0,9.88-68.565-97.702-80.1c-107.582-11.534-1.098-3.845-1.098-3.845
				S3633.142,3512.659,3584.292,3546.301z"/>
			<path style="fill:#DE995F;" d="M3643.022,3549.185l-0.406,3.794l-8.376,78.228l-156.432-13.777l51.485-67.38l0.659-0.865
				C3643.022,3551.748,3643.022,3549.185,3643.022,3549.185z"/>
			<path style="opacity:0.38;fill:#050505;" d="M3643.022,3549.185l-0.406,3.794l-82.476,2.294l-30.847-5.222l0.659-0.865
				C3643.022,3551.748,3643.022,3549.185,3643.022,3549.185z"/>
			<path style="fill:#081956;" d="M3883.061,3414.175l-182.164,35.391l-239.007,46.432l-189.849-44.189l-299.779-69.783
				c-13.7-102.938,202.012-43.664,202.012-43.664l140.438,15.751h0.022l82.388,9.24l186.621,25.632l59.28-23.459l70.257-27.804
				C3902.645,3321.382,3883.061,3414.175,3883.061,3414.175z"/>
			<polygon style="opacity:0.3;" points="3700.897,3449.567 3461.89,3495.999 3272.042,3451.809 3220.381,3421.025 
				3314.712,3354.114 3314.734,3354.114 3397.122,3363.354 3583.743,3388.986 3643.022,3365.526 			"/>
			<path style="fill:#081956;" d="M3195.132,3531.243l257.976-67.284c0,0,184.426-68.565,216.261-64.721
				c0,0,228.336-117.266,212.968,26.273c0,0,26.347,112.781-380.927,130.082L3195.132,3531.243z"/>
			<path style="opacity:0.13;" d="M3372.422,3484.785l28.542-8.33c21.597,14.395,62.194,26.375,88.919,38.448
				c30.239,13.659,66.964,26.273,102.093,34.603c-23.053,2.777-46.106,5.553-69.16,8.33L3372.422,3484.785z"/>
			<path style="fill:#081956;" d="M3572.216,3551.428c0,0-75.197,59.915-24.7,79.779c0,0-291.826-32.759-525.266-163.165
				c-17.689-9.882-30.239-22.491-36.137-36.362c-21.381-50.285-50.919-164.673,179.379-67.044c0,0,178.897,60.778,237.854,113.07
				c11.289,10.013,24.69,19.151,40.238,26.982C3480.484,3523.273,3543.043,3552.301,3572.216,3551.428z"/>
			<path style="fill:#CC8B5B;" d="M3393.828,2886.357l136.124,0.243l43.911,82.663c0,0-85.626,129.441-208.576,14.097
				c5.466-18.578,23.625-45.822,29.091-64.4C3403.159,2899.737,3402.062,2901.019,3393.828,2886.357z"/>
			<path style="fill:#FFFFFF;" d="M3747.006,3021.58l-30.43,243.73l-468.75-4.48c0,0,32.18-124.12,25.76-144.27
				c-0.39-1.23-0.92-2.07-1.61-2.48l-129.54-4.48c0,0,0.99-17.78,5.22-41.24c7.16-39.59,23.57-95.35,60.1-109.03
				c6.02-2.25,23.6-9.29,23.6-9.29s159.73-41.97,163.02-31.08c0,0-8.78,127.52,164.67,21.79
				C3559.046,2940.75,3759.876,2990.59,3747.006,3021.58z"/>
			<path style="fill:#FFFFFF;" d="M3651.804,3277.487l9.602,80.763l108.217-32.84c24.533-7.445,41.339-21.49,44.365-37.534
				c2.693-14.275,0.983-34.606-11.789-62.936l-24.151-107.013c0,0,11.527-74.012-44.46-115.664c0,0-20.309,122.713-56.535,143.218
				l-7.684,102.527L3651.804,3277.487z"/>
			<path style="opacity:0.1;" d="M3348.306,2978.88l-74.72,137.68c-0.39-1.23-0.92-2.07-1.61-2.48l-129.54-4.48
				c0,0,0.99-17.78,5.22-41.24l131.49-122.81C3279.146,2945.55,3335.136,2978.23,3348.306,2978.88z"/>
			<path style="fill:#DE995F;" d="M3372.636,2897c-3.204,21.424-7,28-18.328,62.011l-17.564,33.321l-49.4-33.321l13.173-13.457
				l-6.587-60.876l16.672-40.781c5.926-14.494,20.63-23.739,36.199-22.064C3364.252,2823.711,3381.303,2839.042,3372.636,2897z"/>
			<polygon style="opacity:0.13;" points="3240.14,3103.831 3274.421,3126.059 3263.742,3194.504 3354.309,2991.051 
				3321.924,2982.336 			"/>
			<path style="fill:#FFFFFF;" d="M3285.149,2945.554c0,0,55.986,32.681,69.16,33.321l-105.386,194.162
				c0,0-67.743,83.908-137.295,20.804c-42.844-38.873-29.039-90.679,33.619-118.942c0.882-0.398,1.776-0.793,2.681-1.186
				L3285.149,2945.554z"/>
			<path style="opacity:0.13;" d="M3393.279,2917.039c0,0,65.151,94.035,150.586-4.246l-26.537-38.687l-108.131,12.28
				L3393.279,2917.039z"/>
			<path style="fill:#DE995F;" d="M3365.286,2753.315c0,0,125.146-68.565,175.643-8.33c0,0,104.288,105.732-58.182,200.57
				C3482.748,2945.554,3377.362,2992.332,3365.286,2753.315z"/>
			<path d="M3378.858,2853.248l-32.622-54.576c-7.485-12.523-10.873-25.756-9.906-39.007c3.029-41.5,28.355-121.187,183.741-86.449
				c0,0,136.124,59.594,60.377,135.849l-25.249,55.108c0,0,3.293-99.323-35.129-104.45c0,0-87.822,19.224-144.906,17.942
				C3375.166,2777.665,3373.52,2845.91,3378.858,2853.248z"/>
			<g>
				
					<ellipse style="fill:none;stroke:#000000;stroke-width:2.0633;stroke-miterlimit:10;" cx="3409.197" cy="2824.444" rx="29.64" ry="17.302"/>
				
					<ellipse style="fill:none;stroke:#000000;stroke-width:2.0633;stroke-miterlimit:10;" cx="3499.214" cy="2821.88" rx="29.64" ry="17.302"/>
				<path style="fill:none;stroke:#000000;stroke-width:2.0633;stroke-miterlimit:10;" d="M3438.511,2821.88
					c0,0,13.499,8.971,31.063,0"/>
				
					<line style="fill:none;stroke:#000000;stroke-width:2.0633;stroke-miterlimit:10;" x1="3379.557" y1="2824.444" x2="3364.737" y2="2814.511"/>
				
					<line style="fill:none;stroke:#000000;stroke-width:2.0633;stroke-miterlimit:10;" x1="3528.854" y1="2821.88" x2="3566.178" y2="2817.395"/>
			</g>
			<path style="opacity:0.13;" d="M3661.135,3274.604c0,0,32.933-25.632,72.453-28.195c0,0-8.782-5.767-32.933,0
				c0,0,21.956-13.457,47.204-8.33C3747.86,3238.078,3695.167,3218.213,3661.135,3274.604z"/>
			<path style="fill:#829CF8;" d="M3225.605,3195.318l439.909-5.476c6.35-0.079,11.54,5.047,11.54,11.397v182.964
				c0,6.245-5.026,11.328-11.271,11.397l-431.126,4.799c-6.13,0.068-11.216-4.725-11.511-10.848l-8.783-182.286
				C3214.052,3200.816,3219.151,3195.398,3225.605,3195.318z"/>
			<path style="opacity:0.38;fill:none;stroke:#000000;stroke-width:2.0633;stroke-miterlimit:10;" d="M3009.608,3333.236"/>
			<path style="opacity:0.38;fill:none;stroke:#000000;stroke-width:2.0633;stroke-miterlimit:10;" d="M3213.794,3382.229"/>
			<g style="opacity:0.38;">
				<path style="fill:none;" d="M3682.542,3392.898"/>
			</g>
			<path style="opacity:0.13;" d="M3234.103,3389.947c0,0-73.528-45.877-207.479-59.594c0,0,66.964-4.486,214.065,46.137
				L3234.103,3389.947z"/>
			<path style="opacity:0.13;" d="M3677.602,3395.714c0,0,132.896-68.023,185.831-31.609c0,0-27.752-40.16-202.297,27.764
				L3677.602,3395.714z"/>
			<path style="opacity:0.13;" d="M3676.504,3145.162c0,0,73.551-55.108,71.355-83.303c0,0-19.76,24.991-25.249,29.477
				c0,0,27.444-33.962,16.467-47.419c0,0-15.321,42.658-26.871,43.436L3676.504,3145.162z"/>
			<path style="opacity:0.13;" d="M3675.956,3144.842c0,0,54.888-107.654,43.911-113.421
				C3719.866,3031.421,3717.671,3052.567,3675.956,3144.842z"/>
		</g>
	</g>
</g>
</svg>
