<svg id="Layer_1" enable-background="new 0 0 48 48" viewBox="0 0 48 48" xmlns="http://www.w3.org/2000/svg"><g><g><path d="m39.4 8c-8.7-8.7-22.7-8.7-31.4 0s-8.7 22.7 0 31.4c6.8 6.8 16.8 8.2 25 4.4l13.3 2.4-2.5-13.2c3.8-8.2 2.4-18.2-4.4-25z" fill="#e3f5fc"/><path d="m47.5 47.5-14.4-2.6c-8.7 3.9-19.1 2-25.8-4.8-9-9-9-23.8 0-32.8 9-9 23.8-9 32.8 0 6.8 6.8 8.7 17.1 4.8 25.8zm-14.6-4.7 12.1 2.2-2.2-12.2.1-.3c3.7-8 2-17.6-4.2-23.9-8.3-8.3-21.7-8.3-30 0s-8.3 21.7 0 30c6.2 6.2 15.8 8 23.9 4.2z" fill="#439cbf"/></g><g><circle cx="23.9" cy="23.9" fill="#ededed" r="17.5"/><path d="m23.9 42.3c-10.2 0-18.5-8.3-18.5-18.4 0-10.2 8.3-18.4 18.4-18.4 10.2 0 18.4 8.3 18.4 18.4.1 10.1-8.2 18.4-18.3 18.4zm0-34.9c-9.1 0-16.5 7.4-16.5 16.5s7.4 16.5 16.5 16.5 16.5-7.4 16.5-16.5c-.1-9.1-7.5-16.5-16.5-16.5z" fill="#439cbf"/></g><g><path d="m25.9 28.1h-4v-2.5c0-1.9 1.2-3.6 3-4.3 1-.4 2-1.5 1.7-3.1-.2-1.1-1.1-2-2.2-2.2-.8-.1-1.6.1-2.3.6-.6.5-1 1.3-1 2.1h-4c0-2 .9-3.9 2.4-5.2s3.6-1.8 5.6-1.5c2.7.5 5 2.7 5.5 5.5.6 3.2-1.2 6.3-4.2 7.5-.2.1-.5.3-.5.5z" fill="#e3f5fc"/><path d="m26.9 29.1h-6v-3.5c0-2.3 1.4-4.3 3.7-5.2.5-.2 1.3-.8 1.1-2-.1-.7-.7-1.3-1.4-1.4-.5-.1-1.1 0-1.5.4-.4.3-.6.8-.6 1.3v1h-6v-1c0-2.3 1-4.5 2.8-6s4.1-2.1 6.4-1.7c3.1.6 5.7 3.1 6.3 6.3.6 3.7-1.3 7.1-4.6 8.6v3.2zm-4.1-2h2.1v-1.5c0-.6.4-1.2 1.1-1.5 2.6-1 4.1-3.7 3.6-6.4-.4-2.3-2.3-4.3-4.7-4.7-1.7-.3-3.5.2-4.8 1.3-1.1.9-1.8 2.1-2 3.4h2.1c.2-.7.6-1.4 1.2-1.9.9-.7 2-1 3.1-.8 1.5.3 2.7 1.5 3 3 .4 2.1-.9 3.6-2.3 4.2-1.5.6-2.4 1.9-2.4 3.4z" fill="#439cbf"/></g><g><path d="m23.9 35.8c-1.1 0-2-.9-2-2 0-1.1.9-2 2-2 1.1 0 2 .9 2 2 0 1.1-.9 2-2 2z" fill="#e3f5fc"/><path d="m23.9 36.8c-1.7 0-3-1.3-3-3s1.3-3 3-3 3 1.3 3 3c0 1.6-1.4 3-3 3zm0-4c-.6 0-1 .5-1 1s.5 1 1 1c.6 0 1-.5 1-1s-.5-1-1-1z" fill="#439cbf"/></g></g></svg>