<svg id="Layer_3" viewBox="0 0 64 64" xmlns="http://www.w3.org/2000/svg" data-name="Layer 3"><path d="m28 47 4-4 4 4h-2v7h-4v-7z" fill="#f4b2b0"/><path d="m10 6v12h44v-12zm9 9a3 3 0 1 1 3-3 3 3 0 0 1 -3 3zm14 0a3 3 0 1 1 3-3 3 3 0 0 1 -3 3zm13 0a3 3 0 1 1 3-3 3 3 0 0 1 -3 3z" fill="#f4b2b0"/><g fill="#b3404a"><path d="m54 5h-3.3a5.153 5.153 0 0 0 -4.7-4 5.158 5.158 0 0 0 -4.708 4h-3.587a5.153 5.153 0 0 0 -4.705-4 5.158 5.158 0 0 0 -4.708 4h-4.587a5.153 5.153 0 0 0 -4.705-4 5.158 5.158 0 0 0 -4.708 4h-4.292a1 1 0 0 0 -1 1v56a1 1 0 0 0 1 1h44a1 1 0 0 0 1-1v-56a1 1 0 0 0 -1-1zm-8-2a2.993 2.993 0 0 1 2.587 2h-5.17a2.975 2.975 0 0 1 2.583-2zm-13 0a2.993 2.993 0 0 1 2.587 2h-5.17a2.975 2.975 0 0 1 2.583-2zm-14 0a2.993 2.993 0 0 1 2.587 2h-5.17a2.975 2.975 0 0 1 2.583-2zm-5 4a6.723 6.723 0 0 0 1.183 3.867 4.026 4.026 0 1 0 1.225-1.889 5 5 0 0 1 -.408-1.978h12a6.723 6.723 0 0 0 1.183 3.867 4.026 4.026 0 1 0 1.225-1.889 5 5 0 0 1 -.408-1.978h11a6.723 6.723 0 0 0 1.183 3.867 4.026 4.026 0 1 0 1.225-1.889 5 5 0 0 1 -.408-1.978h10v10h-42v-10zm5 6a4.3 4.3 0 0 0 1.919-.469 1.988 1.988 0 0 1 -3.836.009 4.272 4.272 0 0 0 1.917.46zm-1.362-2.456a1.977 1.977 0 0 1 2.724 0 2.333 2.333 0 0 1 -1.362.456 2.4 2.4 0 0 1 -1.362-.456zm15.362 2.456a4.3 4.3 0 0 0 1.919-.469 1.988 1.988 0 0 1 -3.836.009 4.272 4.272 0 0 0 1.917.46zm-1.362-2.456a1.977 1.977 0 0 1 2.724 0 2.333 2.333 0 0 1 -1.362.456 2.4 2.4 0 0 1 -1.362-.456zm14.362 2.456a4.3 4.3 0 0 0 1.919-.469 1.988 1.988 0 0 1 -3.836.009 4.272 4.272 0 0 0 1.917.46zm-1.362-2.456a1.977 1.977 0 0 1 2.724 0 2.333 2.333 0 0 1 -1.362.456 2.4 2.4 0 0 1 -1.362-.456zm-33.638 50.456v-42h42v42z"/><path d="m32 39a10 10 0 1 0 10 10 10.011 10.011 0 0 0 -10-10zm0 18a8 8 0 1 1 8-8 8.009 8.009 0 0 1 -8 8z"/><path d="m15 23h20v2h-20z"/><path d="m15 27h34v2h-34z"/><path d="m15 31h34v2h-34z"/><path d="m15 35h30v2h-30z"/><path d="m47 35h2v2h-2z"/><path d="m32.707 42.293a1 1 0 0 0 -1.414 0l-4 4a1 1 0 0 0 .707 1.707h1v6a1 1 0 0 0 1 1h4a1 1 0 0 0 1-1v-6h1a1 1 0 0 0 .707-1.707zm.293 4.707v6h-2v-6a1 1 0 0 0 -.649-.937l1.649-1.649 1.649 1.649a1 1 0 0 0 -.649.937z"/></g></svg>